HIERARCHY
ROOT Hips
{
    OFFSET 0.000000 0.000000 0.000000
    CHANNELS 6 Xposition Yposition Zposition Zrotation Yrotation Xrotation
    JOINT Chest
    {
        OFFSET 0.000000 1.634758 -0.000000
        CHANNELS 3 Zrotation Yrotation Xrotation
        JOINT Chest2
        {
            OFFSET 0.000000 2.197341 0.000000
            CHANNELS 3 Zrotation Yrotation Xrotation
            JOINT Neck
            {
                OFFSET 0.000000 0.961544 0.000000
                CHANNELS 3 Zrotation Yrotation Xrotation
                JOINT Head
                {
                    OFFSET 0.000000 0.632542 -0.032565
                    CHANNELS 3 Zrotation Yrotation Xrotation
                    End Site
                    {
                        OFFSET -0.000001 0.439502 2.922845
                    }
                }
            }
            JOINT LeftCollar
            {
                OFFSET 0.167536 0.778237 -0.168280
                CHANNELS 3 Zrotation Yrotation Xrotation
                JOINT LeftShoulder
                {
                    OFFSET 0.831514 -0.002900 0.006458
                    CHANNELS 3 Zrotation Yrotation Xrotation
                    JOINT LeftElbow
                    {
                        OFFSET 2.272872 -0.026639 0.059314
                        CHANNELS 3 Zrotation Yrotation Xrotation
                        JOINT LeftWrist
                        {
                            OFFSET 2.081982 -0.024402 0.054333
                            CHANNELS 3 Zrotation Yrotation Xrotation
                            JOINT LeftHandThumb1
                            {
                                OFFSET 0.218903 -0.128645 0.283837
                                CHANNELS 3 Zrotation Yrotation Xrotation
                                JOINT LeftHandThumb2
                                {
                                    OFFSET 0.137157 -0.025101 0.077902
                                    CHANNELS 3 Zrotation Yrotation Xrotation
                                    JOINT LeftHandThumb3
                                    {
                                        OFFSET 0.163651 -0.080453 -0.016883
                                        CHANNELS 3 Zrotation Yrotation Xrotation
                                        End Site
                                        {
                                            OFFSET 0.248054 -0.075713 -0.067625
                                        }
                                    }
                                }
                            }
                            JOINT LeftHandFore1
                            {
                                OFFSET 0.767340 -0.016076 0.196678
                                CHANNELS 3 Zrotation Yrotation Xrotation
                                JOINT LeftHandFore2
                                {
                                    OFFSET 0.195889 -0.091950 0.012965
                                    CHANNELS 3 Zrotation Yrotation Xrotation
                                    JOINT LeftHandFore3
                                    {
                                        OFFSET 0.090152 -0.092508 0.008820
                                        CHANNELS 3 Zrotation Yrotation Xrotation
                                        End Site
                                        {
                                            OFFSET 0.099674 -0.165346 0.009626
                                        }
                                    }
                                }
                            }
                            JOINT LeftHandMiddle1
                            {
                                OFFSET 0.709887 -0.008320 0.018526
                                CHANNELS 3 Zrotation Yrotation Xrotation
                                JOINT LeftHandMiddle2
                                {
                                    OFFSET 0.175292 -0.171018 0.009463
                                    CHANNELS 3 Zrotation Yrotation Xrotation
                                    JOINT LeftHandMiddle3
                                    {
                                        OFFSET 0.021084 -0.144579 0.005963
                                        CHANNELS 3 Zrotation Yrotation Xrotation
                                        End Site
                                        {
                                            OFFSET -0.088310 -0.218549 0.008263
                                        }
                                    }
                                }
                            }
                            JOINT LeftHandRing1
                            {
                                OFFSET 0.743817 -0.005823 -0.153668
                                CHANNELS 3 Zrotation Yrotation Xrotation
                                JOINT LeftHandRing2
                                {
                                    OFFSET 0.186666 -0.299460 -0.014570
                                    CHANNELS 3 Zrotation Yrotation Xrotation
                                    JOINT LeftHandRing3
                                    {
                                        OFFSET -0.046603 -0.128167 -0.002620
                                        CHANNELS 3 Zrotation Yrotation Xrotation
                                        End Site
                                        {
                                            OFFSET -0.106047 -0.056302 -0.001969
                                        }
                                    }
                                }
                            }
                            JOINT LeftHandLittle1
                            {
                                OFFSET 0.689408 -0.053302 -0.308304
                                CHANNELS 3 Zrotation Yrotation Xrotation
                                JOINT LeftHandLittle2
                                {
                                    OFFSET 0.037061 -0.188151 -0.035773
                                    CHANNELS 3 Zrotation Yrotation Xrotation
                                    JOINT LeftHandLittle3
                                    {
                                        OFFSET -0.111122 -0.034648 -0.030784
                                        CHANNELS 3 Zrotation Yrotation Xrotation
                                        End Site
                                        {
                                            OFFSET -0.160518 0.100930 -0.018325
                                        }
                                    }
                                }
                            }
                        }
                    }
                }
            }
            JOINT RightCollar
            {
                OFFSET -0.167536 0.778237 -0.168280
                CHANNELS 3 Zrotation Yrotation Xrotation
                JOINT RightShoulder
                {
                    OFFSET -0.831514 -0.002900 0.006457
                    CHANNELS 3 Zrotation Yrotation Xrotation
                    JOINT RightElbow
                    {
                        OFFSET -2.272872 -0.026639 0.059313
                        CHANNELS 3 Zrotation Yrotation Xrotation
                        JOINT RightWrist
                        {
                            OFFSET -2.081982 -0.024402 0.054331
                            CHANNELS 3 Zrotation Yrotation Xrotation
                            JOINT RightHandThumb1
                            {
                                OFFSET -0.218911 -0.128571 0.283837
                                CHANNELS 3 Zrotation Yrotation Xrotation
                                JOINT RightHandThumb2
                                {
                                    OFFSET -0.137157 -0.025101 0.077902
                                    CHANNELS 3 Zrotation Yrotation Xrotation
                                    JOINT RightHandThumb3
                                    {
                                        OFFSET -0.161119 -0.083253 0.025471
                                        CHANNELS 3 Zrotation Yrotation Xrotation
                                        End Site
                                        {
                                            OFFSET -0.220621 -0.124615 0.087373
                                        }
                                    }
                                }
                            }
                            JOINT RightHandFore1
                            {
                                OFFSET -0.767344 -0.015991 0.196679
                                CHANNELS 3 Zrotation Yrotation Xrotation
                                JOINT RightHandFore2
                                {
                                    OFFSET -0.209499 -0.054481 0.011788
                                    CHANNELS 3 Zrotation Yrotation Xrotation
                                    JOINT RightHandFore3
                                    {
                                        OFFSET -0.117585 -0.053809 0.006365
                                        CHANNELS 3 Zrotation Yrotation Xrotation
                                        End Site
                                        {
                                            OFFSET -0.169084 -0.092785 0.012973
                                        }
                                    }
                                }
                            }
                            JOINT RightHandMiddle1
                            {
                                OFFSET -0.709887 -0.008302 0.018525
                                CHANNELS 3 Zrotation Yrotation Xrotation
                                JOINT RightHandMiddle2
                                {
                                    OFFSET -0.225178 -0.096380 0.008216
                                    CHANNELS 3 Zrotation Yrotation Xrotation
                                    JOINT RightHandMiddle3
                                    {
                                        OFFSET -0.112918 -0.092858 0.003357
                                        CHANNELS 3 Zrotation Yrotation Xrotation
                                        End Site
                                        {
                                            OFFSET -0.146466 -0.184854 0.002666
                                        }
                                    }
                                }
                            }
                            JOINT RightHandRing1
                            {
                                OFFSET -0.743819 -0.005785 -0.153669
                                CHANNELS 3 Zrotation Yrotation Xrotation
                                JOINT RightHandRing2
                                {
                                    OFFSET -0.305590 -0.176807 -0.009356
                                    CHANNELS 3 Zrotation Yrotation Xrotation
                                    JOINT RightHandRing3
                                    {
                                        OFFSET -0.080470 -0.109581 -0.011025
                                        CHANNELS 3 Zrotation Yrotation Xrotation
                                        End Site
                                        {
                                            OFFSET -0.037550 -0.113607 -0.010173
                                        }
                                    }
                                }
                            }
                            JOINT RightHandLittle1
                            {
                                OFFSET -0.689403 -0.053298 -0.308303
                                CHANNELS 3 Zrotation Yrotation Xrotation
                                JOINT RightHandLittle2
                                {
                                    OFFSET -0.153563 -0.118379 -0.021450
                                    CHANNELS 3 Zrotation Yrotation Xrotation
                                    JOINT RightHandLittle3
                                    {
                                        OFFSET -0.025917 -0.116755 -0.013863
                                        CHANNELS 3 Zrotation Yrotation Xrotation
                                        End Site
                                        {
                                            OFFSET 0.003494 -0.188622 -0.026422
                                        }
                                    }
                                }
                            }
                        }
                    }
                }
            }
        }
    }
    JOINT LeftHip
    {
        OFFSET 0.685143 0.673822 -0.044491
        CHANNELS 3 Zrotation Yrotation Xrotation
        JOINT LeftKnee
        {
            OFFSET 0.085364 -3.750208 0.017676
            CHANNELS 3 Zrotation Yrotation Xrotation
            JOINT LeftAnkle
            {
                OFFSET 0.094583 -4.155206 0.019585
                CHANNELS 3 Zrotation Yrotation Xrotation
                JOINT LeftToe
                {
                    OFFSET -0.000000 -0.395925 0.621478
                    CHANNELS 3 Zrotation Yrotation Xrotation
                    End Site
                    {
                        OFFSET -0.000000 -0.077878 0.321152
                    }
                }
            }
        }
    }
    JOINT RightHip
    {
        OFFSET -0.685143 0.673822 -0.044492
        CHANNELS 3 Zrotation Yrotation Xrotation
        JOINT RightKnee
        {
            OFFSET -0.085364 -3.750208 0.017677
            CHANNELS 3 Zrotation Yrotation Xrotation
            JOINT RightAnkle
            {
                OFFSET -0.094583 -4.155206 0.019585
                CHANNELS 3 Zrotation Yrotation Xrotation
                JOINT RightToe
                {
                    OFFSET -0.000000 -0.395925 0.621478
                    CHANNELS 3 Zrotation Yrotation Xrotation
                    End Site
                    {
                        OFFSET -0.000000 -0.077878 0.321152
                    }
                }
            }
        }
    }
}
MOTION
Frames: 4
Frame Time: 0.033333
3.406085 8.246746 -2.029440 -180.000000 -4.297200 180.000000 -8.140802 -2.671043 10.557175 -0.683674 0.438939 -4.972322 12.299965 1.102909 9.469936 -0.157526 3.057058 20.226891 -12.900173 2.819254 0.122574 -66.304688 37.713799 -12.477374 0.496416 -55.084724 -0.959236 25.805153 53.721272 -32.153717 -0.000017 -0.000007 0.000009 21.957157 -3.754764 -51.311718 0.206179 -7.821662 -7.448009 44.201958 2.471186 3.989586 -18.307581 -0.699296 0.343470 24.390381 1.439907 -0.358217 56.449127 1.249831 0.605357 12.192922 3.672770 3.345477 38.974686 1.175678 -0.051228 66.144814 3.033076 2.159449 32.375454 -2.428984 -4.487099 48.263046 -0.378418 -0.162612 94.750137 15.899769 -3.137249 56.278194 -1.781750 -7.279705 57.492584 -2.336699 -10.620252 -0.793454 12.090771 -0.037581 -13.477603 32.162247 6.024340 -0.841253 63.785633 -1.359169 -16.154924 -50.819496 -48.469601 -0.000010 0.000013 -0.000002 -10.707413 43.802597 22.978136 -0.209495 -1.249945 5.006941 -33.639820 -2.847141 3.431328 28.750586 -0.793111 2.444261 -15.359365 0.060032 -1.110790 -35.336491 -0.870922 0.572451 9.035379 4.608813 0.118643 -20.881721 0.026151 -1.122076 -38.022816 -3.434552 2.613031 -4.545462 -3.445235 1.125153 -24.041138 2.318547 0.209890 -52.080372 -10.615758 -7.208693 -13.837243 3.849988 0.829824 -21.580034 4.190560 1.157898 1.414579 4.775672 -11.504511 0.189891 0.677636 31.305910 -5.449515 -5.390375 -21.331827 0.000001 0.000004 -0.000004 5.257524 -39.164764 -13.027715 -0.194496 -0.685197 31.695433 18.816435 17.436445 -9.015282 0.414486 2.724073 -4.975718
3.417603 8.096693 -2.027973 -180.000000 -4.297201 180.000000 -8.561844 -1.977757 13.593765 -0.027740 0.307573 -4.368790 11.513715 1.383755 9.804087 -0.165831 3.217866 20.616953 -11.194471 -0.972838 0.057630 -61.401764 34.072025 -2.942426 2.934102 -79.319397 -3.546191 -8.175839 40.351135 -54.206837 0.000009 0.000008 -0.000007 21.957155 -3.754768 -51.311714 0.206184 -7.821667 -7.448005 44.201984 2.471205 3.989587 -18.307581 -0.699294 0.343470 24.390385 1.439907 -0.358219 56.449142 1.249848 0.605365 12.192923 3.672772 3.345476 38.974686 1.175681 -0.051229 66.144821 3.033085 2.159461 32.375454 -2.428983 -4.487092 48.263050 -0.378417 -0.162613 94.750145 15.899780 -3.137235 56.278191 -1.781748 -7.279706 57.492584 -2.336699 -10.620255 1.382423 11.922818 -0.050938 -4.521035 33.828049 13.113363 -1.862355 74.712029 -2.446905 0.761122 -29.259485 -59.166386 -0.000007 -0.000009 0.000006 -10.707417 43.802597 22.978132 -0.209495 -1.249945 5.006947 -33.639816 -2.847155 3.431326 28.750589 -0.793109 2.444261 -15.359365 0.060031 -1.110791 -35.336468 -0.870930 0.572462 9.035379 4.608810 0.118644 -20.881725 0.026147 -1.122082 -38.022808 -3.434566 2.613030 -4.545463 -3.445235 1.125161 -24.041143 2.318550 0.209890 -52.080357 -10.615767 -7.208691 -13.837245 3.849986 0.829828 -21.580036 4.190565 1.157896 1.339187 2.523985 -15.156861 0.282702 0.810788 38.442017 -5.746814 -3.725671 -25.010338 0.000001 0.000001 -0.000002 6.288626 -26.973881 -16.957996 -0.288747 -0.818399 38.869518 20.320110 8.901399 -15.850532 0.423748 2.821304 -5.085392
3.430303 7.955053 -2.026500 -180.000000 -4.297200 180.000000 -8.876272 -1.378496 16.451277 0.671955 0.178948 -3.820588 9.528919 1.860670 9.702677 -0.197374 3.828197 20.457382 -9.111808 -3.149367 0.010693 -51.139099 28.162907 6.559014 169.458115 -86.101799 -170.155746 -19.114019 24.695263 -60.580269 0.000007 0.000002 -0.000002 21.957157 -3.754770 -51.311718 0.206178 -7.821665 -7.448008 44.201981 2.471195 3.989599 -18.307583 -0.699294 0.343472 24.390383 1.439905 -0.358217 56.449142 1.249847 0.605368 12.192921 3.672770 3.345474 38.974682 1.175678 -0.051228 66.144821 3.033073 2.159473 32.375454 -2.428979 -4.487099 48.263050 -0.378418 -0.162605 94.750145 15.899771 -3.137233 56.278187 -1.781749 -7.279701 57.492584 -2.336696 -10.620257 1.635307 10.896906 -0.042840 -6.810373 32.977623 14.467512 -150.642197 88.608818 -151.324173 15.310553 -11.792610 -62.005051 -0.000010 -0.000002 -0.000005 -10.707422 43.802601 22.978130 -0.209491 -1.249942 5.006945 -33.639809 -2.847155 3.431327 28.750591 -0.793111 2.444261 -15.359365 0.060028 -1.110788 -35.336468 -0.870932 0.572457 9.035379 4.608815 0.118645 -20.881723 0.026144 -1.122073 -38.022812 -3.434561 2.613024 -4.545458 -3.445239 1.125157 -24.041138 2.318548 0.209887 -52.080353 -10.615767 -7.208701 -13.837246 3.849988 0.829827 -21.580036 4.190565 1.157898 1.291462 0.583139 -18.073874 0.368664 0.908607 44.166328 -6.194544 -2.310020 -27.973436 -0.000002 -0.000006 -0.000002 7.178312 -13.525050 -19.989452 -0.377107 -0.917271 44.698505 24.080009 -0.510043 -22.624258 0.434539 2.941406 -5.223323
3.444027 7.830243 -2.025024 -180.000000 -4.297200 180.000000 -9.083633 -0.905075 18.954967 1.359560 0.062572 -3.364303 6.952303 2.381158 9.767010 -0.236350 4.581197 20.643614 -7.408129 -3.903621 -0.015922 -43.837063 24.668745 14.856992 177.175873 -71.920898 -177.958267 -27.986467 8.304838 -61.565563 -0.000004 -0.000007 0.000011 21.957157 -3.754771 -51.311714 0.206187 -7.821665 -7.448005 44.201981 2.471187 3.989579 -18.307581 -0.699297 0.343476 24.390383 1.439908 -0.358214 56.449154 1.249841 0.605361 12.192922 3.672766 3.345477 38.974689 1.175679 -0.051227 66.144829 3.033079 2.159450 32.375454 -2.428985 -4.487101 48.263050 -0.378417 -0.162612 94.750160 15.899776 -3.137247 56.278194 -1.781746 -7.279703 57.492584 -2.336699 -10.620255 2.356742 9.686652 -0.033316 0.589464 35.362778 17.906544 -176.716293 75.182312 -177.479034 22.652302 4.953780 -62.064323 -0.000006 0.000006 -0.000002 -10.707417 43.802597 22.978128 -0.209494 -1.249944 5.006942 -33.639828 -2.847151 3.431333 28.750591 -0.793109 2.444261 -15.359365 0.060028 -1.110789 -35.336475 -0.870924 0.572454 9.035378 4.608812 0.118647 -20.881721 0.026148 -1.122077 -38.022820 -3.434563 2.613033 -4.545459 -3.445236 1.125158 -24.041143 2.318549 0.209889 -52.080360 -10.615763 -7.208694 -13.837243 3.849988 0.829828 -21.580034 4.190565 1.157892 1.284482 -0.882544 -20.369394 0.443023 0.979352 48.677353 -6.628394 -1.291513 -30.296244 -0.000000 -0.000003 0.000006 7.811261 -2.641250 -22.274969 -0.454493 -0.989369 49.347298 28.446098 -7.441344 -28.414804 0.445207 3.063045 -5.356814
